<?xml version="1.0" encoding="UTF-8"?>
<!DOCTYPE svg PUBLIC "-//W3C//DTD SVG 1.1//EN" "http://www.w3.org/Graphics/SVG/1.1/DTD/svg11.dtd">
<svg xmlns="http://www.w3.org/2000/svg" version="1.1" width="1260px" height="2400px" style="shape-rendering:geometricPrecision; text-rendering:geometricPrecision; image-rendering:optimizeQuality; fill-rule:evenodd; clip-rule:evenodd">
<g><path style="opacity:1" fill="#031e64" d="M -0.5,-0.5 C 419.5,-0.5 839.5,-0.5 1259.5,-0.5C 1259.5,799.5 1259.5,1599.5 1259.5,2399.5C 839.5,2399.5 419.5,2399.5 -0.5,2399.5C -0.5,1599.5 -0.5,799.5 -0.5,-0.5 Z"/></g>
<g><path style="opacity:1" fill="#f82405" d="M 693.5,1005.5 C 700.125,1006.66 706.792,1007.83 713.5,1009C 704.874,1023.08 696.374,1037.25 688,1051.5C 688.642,1054.87 690.309,1057.87 693,1060.5C 693.667,1061.83 693.667,1063.17 693,1064.5C 670.751,1098 648.751,1131.66 627,1165.5C 627.538,1169.24 629.204,1172.58 632,1175.5C 632.667,1177.17 632.667,1178.83 632,1180.5C 613.333,1202.5 594.667,1224.5 576,1246.5C 583.056,1231.73 590.723,1217.06 599,1202.5C 599.667,1201.5 599.667,1200.5 599,1199.5C 593.783,1197.16 593.116,1193.83 597,1189.5C 613.731,1162.43 630.065,1135.09 646,1107.5C 645.475,1103.24 643.475,1099.57 640,1096.5C 639.333,1095.17 639.333,1093.83 640,1092.5C 657.662,1063.35 675.495,1034.35 693.5,1005.5 Z"/></g>
<g><path style="opacity:1" fill="#fbb206" d="M 638.5,1027.5 C 638.427,1029.03 639.094,1030.03 640.5,1030.5C 644.806,1036.94 648.472,1043.78 651.5,1051C 645.35,1063.01 639.35,1075.18 633.5,1087.5C 630.263,1089.63 628.263,1092.63 627.5,1096.5C 622.062,1105.21 617.062,1114.21 612.5,1123.5C 609.742,1126.68 607.742,1130.34 606.5,1134.5C 592.646,1159.41 578.646,1184.41 564.5,1209.5C 563.596,1210.21 563.263,1211.21 563.5,1212.5C 568.294,1211.9 572.627,1212.57 576.5,1214.5C 570.694,1226.78 564.861,1239.11 559,1251.5C 558.51,1252.79 558.343,1254.13 558.5,1255.5C 553.5,1255.5 548.5,1255.5 543.5,1255.5C 525.801,1256.15 508.468,1255.49 491.5,1253.5C 494.425,1247.25 497.758,1241.25 501.5,1235.5C 502.906,1235.03 503.573,1234.03 503.5,1232.5C 506.647,1225.54 510.313,1218.87 514.5,1212.5C 515.906,1212.03 516.573,1211.03 516.5,1209.5C 529.488,1186.19 542.488,1162.86 555.5,1139.5C 557.408,1138.51 558.408,1136.85 558.5,1134.5C 578.69,1097.44 599.356,1060.78 620.5,1024.5C 622.408,1023.51 623.408,1021.85 623.5,1019.5C 624.653,1017.19 625.82,1014.86 627,1012.5C 627.718,1011.55 628.551,1011.38 629.5,1012C 632.65,1017.14 635.65,1022.31 638.5,1027.5 Z"/></g>
<g><path style="opacity:1" fill="#9d793c" d="M 623.5,1019.5 C 623.408,1021.85 622.408,1023.51 620.5,1024.5C 620.75,1022.33 621.75,1020.66 623.5,1019.5 Z"/></g>
<g><path style="opacity:1" fill="#746146" d="M 638.5,1027.5 C 639.906,1027.97 640.573,1028.97 640.5,1030.5C 639.094,1030.03 638.427,1029.03 638.5,1027.5 Z"/></g>
<g><path style="opacity:1" fill="#494055" d="M 633.5,1087.5 C 631.787,1089.91 630.453,1092.57 629.5,1095.5C 629.043,1096.3 628.376,1096.63 627.5,1096.5C 628.263,1092.63 630.263,1089.63 633.5,1087.5 Z"/></g>
<g><path style="opacity:1" fill="#f9b108" d="M 686.5,1111.5 C 688.624,1112.03 690.124,1113.36 691,1115.5C 702.714,1135.77 714.547,1155.93 726.5,1176C 726.167,1176.5 725.833,1177 725.5,1177.5C 711.877,1178.71 698.21,1179.71 684.5,1180.5C 681.911,1180.47 679.411,1180.14 677,1179.5C 671.225,1168.28 665.725,1156.95 660.5,1145.5C 661.73,1142.71 663.23,1140.04 665,1137.5C 672.403,1129.03 679.57,1120.36 686.5,1111.5 Z"/></g>
<g><path style="opacity:1" fill="#423c56" d="M 612.5,1123.5 C 611.751,1128.01 609.751,1131.68 606.5,1134.5C 607.742,1130.34 609.742,1126.68 612.5,1123.5 Z"/></g>
<g><path style="opacity:1" fill="#99783e" d="M 558.5,1134.5 C 558.408,1136.85 557.408,1138.51 555.5,1139.5C 555.75,1137.33 556.75,1135.66 558.5,1134.5 Z"/></g>
<g><path style="opacity:1" fill="#716246" d="M 516.5,1209.5 C 516.573,1211.03 515.906,1212.03 514.5,1212.5C 514.427,1210.97 515.094,1209.97 516.5,1209.5 Z"/></g>
<g><path style="opacity:1" fill="#a78230" d="M 564.5,1209.5 C 568.373,1211.43 572.706,1212.1 577.5,1211.5C 577.737,1212.79 577.404,1213.79 576.5,1214.5C 572.627,1212.57 568.294,1211.9 563.5,1212.5C 563.263,1211.21 563.596,1210.21 564.5,1209.5 Z"/></g>
<g><path style="opacity:1" fill="#b78a2e" d="M 622.5,1212.5 C 643.329,1211.96 664.329,1211.96 685.5,1212.5C 664.667,1213.34 643.667,1213.34 622.5,1212.5 Z"/></g>
<g><path style="opacity:1" fill="#fdb302" d="M 622.5,1212.5 C 643.667,1213.34 664.667,1213.34 685.5,1212.5C 706.503,1212.33 727.503,1212.5 748.5,1213C 749.333,1213.83 750.167,1214.67 751,1215.5C 785.432,1275.37 820.098,1335.04 855,1394.5C 855.49,1395.79 855.657,1397.13 855.5,1398.5C 705.163,1399.17 555.163,1398.5 405.5,1396.5C 422.566,1366.03 440.4,1336.03 459,1306.5C 460.371,1301.43 462.538,1296.76 465.5,1292.5C 481.167,1292.5 496.833,1292.5 512.5,1292.5C 512.5,1293.5 512.5,1294.5 512.5,1295.5C 512.5,1295.83 512.5,1296.17 512.5,1296.5C 511.094,1296.97 510.427,1297.97 510.5,1299.5C 504.145,1312.87 497.812,1326.21 491.5,1339.5C 490.094,1339.97 489.427,1340.97 489.5,1342.5C 488.439,1345.62 487.105,1348.62 485.5,1351.5C 484.326,1352.51 483.66,1353.85 483.5,1355.5C 482.596,1356.21 482.263,1357.21 482.5,1358.5C 509.005,1358.83 535.339,1358.5 561.5,1357.5C 585.167,1357.5 608.833,1357.5 632.5,1357.5C 681.171,1357.83 729.838,1357.5 778.5,1356.5C 778.376,1355.89 778.043,1355.56 777.5,1355.5C 774.664,1349.82 771.331,1344.49 767.5,1339.5C 751.796,1311.1 735.796,1282.77 719.5,1254.5C 701.846,1253.5 684.179,1253.17 666.5,1253.5C 642.476,1254.16 618.81,1253.49 595.5,1251.5C 603.763,1237.97 612.763,1224.97 622.5,1212.5 Z"/></g>
<g><path style="opacity:1" fill="#766245" d="M 503.5,1232.5 C 503.573,1234.03 502.906,1235.03 501.5,1235.5C 501.427,1233.97 502.094,1232.97 503.5,1232.5 Z"/></g>
<g><path style="opacity:1" fill="#a58037" d="M 595.5,1251.5 C 618.81,1253.49 642.476,1254.16 666.5,1253.5C 666.5,1253.83 666.5,1254.17 666.5,1254.5C 642.143,1255.16 618.143,1254.49 594.5,1252.5C 594.5,1251.83 594.833,1251.5 595.5,1251.5 Z"/></g>
<g><path style="opacity:1" fill="#2a2f5c" d="M 594.5,1252.5 C 618.143,1254.49 642.143,1255.16 666.5,1254.5C 642.339,1255.5 618.006,1255.83 593.5,1255.5C 593.263,1254.21 593.596,1253.21 594.5,1252.5 Z"/></g>
<g><path style="opacity:1" fill="#1a2462" d="M 666.5,1254.5 C 666.5,1254.17 666.5,1253.83 666.5,1253.5C 684.179,1253.17 701.846,1253.5 719.5,1254.5C 735.796,1282.77 751.796,1311.1 767.5,1339.5C 764.863,1338.37 762.197,1338.37 759.5,1339.5C 759.371,1341.22 759.038,1342.88 758.5,1344.5C 741.928,1318.06 726.761,1290.72 713,1262.5C 712.167,1261.67 711.333,1260.83 710.5,1260C 703.144,1259.17 695.811,1259.34 688.5,1260.5C 689.95,1261.85 690.617,1263.52 690.5,1265.5C 686.948,1262.76 685.614,1259.26 686.5,1255C 679.842,1254.5 673.175,1254.33 666.5,1254.5 Z"/></g>
<g><path style="opacity:1" fill="#444155" d="M 491.5,1253.5 C 508.468,1255.49 525.801,1256.15 543.5,1255.5C 526.008,1256.5 508.341,1256.83 490.5,1256.5C 490.263,1255.21 490.596,1254.21 491.5,1253.5 Z"/></g>
<g><path style="opacity:1" fill="#f9b10b" d="M 758.5,1344.5 C 758.392,1346.51 759.058,1348.18 760.5,1349.5C 749.215,1351.48 737.548,1352.15 725.5,1351.5C 724.325,1351.72 723.325,1351.39 722.5,1350.5C 717.342,1334.92 711.176,1319.92 704,1305.5C 699.686,1292.08 695.186,1278.75 690.5,1265.5C 690.617,1263.52 689.95,1261.85 688.5,1260.5C 695.811,1259.34 703.144,1259.17 710.5,1260C 711.333,1260.83 712.167,1261.67 713,1262.5C 726.761,1290.72 741.928,1318.06 758.5,1344.5 Z"/></g>
<g><path style="opacity:1" fill="#6b5c4a" d="M 549.5,1285.5 C 541.833,1285.5 534.167,1285.5 526.5,1285.5C 526.768,1287.1 526.434,1288.43 525.5,1289.5C 525.5,1287.83 525.5,1286.17 525.5,1284.5C 533.684,1284.17 541.684,1284.51 549.5,1285.5 Z"/></g>
<g><path style="opacity:1" fill="#fbb207" d="M 592.5,1293.5 C 593.387,1302.8 593.721,1312.13 593.5,1321.5C 593.079,1331.58 592.079,1341.58 590.5,1351.5C 579.833,1351.5 569.167,1351.5 558.5,1351.5C 558.704,1348.48 559.037,1345.48 559.5,1342.5C 561.373,1338.48 562.373,1334.15 562.5,1329.5C 564.04,1327.16 564.706,1324.5 564.5,1321.5C 565.222,1316.51 565.388,1311.51 565,1306.5C 558.254,1302.01 552.254,1303.01 547,1309.5C 542.97,1323.69 538.804,1337.69 534.5,1351.5C 523.833,1351.5 513.167,1351.5 502.5,1351.5C 502.5,1350.5 502.5,1349.5 502.5,1348.5C 511.541,1329.41 519.208,1309.74 525.5,1289.5C 526.434,1288.43 526.768,1287.1 526.5,1285.5C 534.167,1285.5 541.833,1285.5 549.5,1285.5C 549.192,1287.92 549.526,1290.26 550.5,1292.5C 551.107,1292.38 551.44,1292.04 551.5,1291.5C 560.087,1284.04 570.087,1281.54 581.5,1284C 585.57,1285.25 589.07,1287.41 592,1290.5C 592.483,1291.45 592.649,1292.45 592.5,1293.5 Z"/></g>
<g><path style="opacity:1" fill="#fab108" d="M 695.5,1320.5 C 695.5,1321.83 695.5,1323.17 695.5,1324.5C 675.66,1324.17 655.993,1324.5 636.5,1325.5C 638.406,1335.55 644.406,1339.39 654.5,1337C 657.952,1336.11 660.952,1334.44 663.5,1332C 665.667,1331.83 667.833,1331.67 670,1331.5C 678.776,1332.9 687.61,1333.57 696.5,1333.5C 696.838,1336.16 696.171,1338.49 694.5,1340.5C 691.194,1343.82 687.528,1346.65 683.5,1349C 673.666,1352.03 663.5,1353.2 653,1352.5C 632.367,1356.49 617.2,1349.49 607.5,1331.5C 607.289,1322.8 607.623,1314.13 608.5,1305.5C 610.098,1301.29 612.432,1297.62 615.5,1294.5C 617.5,1293.17 619.167,1291.5 620.5,1289.5C 621.749,1287.86 623.416,1286.7 625.5,1286C 653.045,1277.62 674.878,1285.12 691,1308.5C 692.419,1312.54 693.919,1316.54 695.5,1320.5 Z"/></g>
<g><path style="opacity:1" fill="#605954" d="M 549.5,1285.5 C 550.167,1287.5 550.833,1289.5 551.5,1291.5C 551.44,1292.04 551.107,1292.38 550.5,1292.5C 549.526,1290.26 549.192,1287.92 549.5,1285.5 Z"/></g>
<g><path style="opacity:1" fill="#6d5d47" d="M 465.5,1292.5 C 481.325,1291.5 497.325,1291.17 513.5,1291.5C 513.768,1293.1 513.434,1294.43 512.5,1295.5C 512.5,1294.5 512.5,1293.5 512.5,1292.5C 496.833,1292.5 481.167,1292.5 465.5,1292.5 Z"/></g>
<g><path style="opacity:1" fill="#81693f" d="M 620.5,1289.5 C 619.167,1291.5 617.5,1293.17 615.5,1294.5C 616.167,1291.83 617.833,1290.17 620.5,1289.5 Z"/></g>
<g><path style="opacity:1" fill="#7d6949" d="M 512.5,1296.5 C 512.573,1298.03 511.906,1299.03 510.5,1299.5C 510.427,1297.97 511.094,1296.97 512.5,1296.5 Z"/></g>
<g><path style="opacity:1" fill="#b28b38" d="M 592.5,1293.5 C 593.268,1294.26 593.768,1295.26 594,1296.5C 594.823,1305.01 594.657,1313.34 593.5,1321.5C 593.721,1312.13 593.387,1302.8 592.5,1293.5 Z"/></g>
<g><path style="opacity:1" fill="#786854" d="M 650.5,1299.5 C 647.813,1299.34 645.146,1299.5 642.5,1300C 640.963,1301.71 639.296,1303.21 637.5,1304.5C 640.175,1298.64 644.508,1296.97 650.5,1299.5 Z"/></g>
<g><path style="opacity:1" fill="#152363" d="M 650.5,1299.5 C 656.058,1300.72 659.725,1304.06 661.5,1309.5C 653.231,1311.47 644.565,1312.14 635.5,1311.5C 635.166,1308.81 635.832,1306.48 637.5,1304.5C 639.296,1303.21 640.963,1301.71 642.5,1300C 645.146,1299.5 647.813,1299.34 650.5,1299.5 Z"/></g>
<g><path style="opacity:1" fill="#9c7b32" d="M 661.5,1309.5 C 662.404,1310.21 662.737,1311.21 662.5,1312.5C 653.318,1312.83 644.318,1312.49 635.5,1311.5C 644.565,1312.14 653.231,1311.47 661.5,1309.5 Z"/></g>
<g><path style="opacity:1" fill="#9e7c3d" d="M 608.5,1305.5 C 607.623,1314.13 607.289,1322.8 607.5,1331.5C 606.344,1323.68 606.177,1315.68 607,1307.5C 607.278,1306.58 607.778,1305.92 608.5,1305.5 Z"/></g>
<g><path style="opacity:1" fill="#ab8b3a" d="M 695.5,1320.5 C 696.451,1321.92 696.784,1323.59 696.5,1325.5C 676.5,1325.5 656.5,1325.5 636.5,1325.5C 655.993,1324.5 675.66,1324.17 695.5,1324.5C 695.5,1323.17 695.5,1321.83 695.5,1320.5 Z"/></g>
<g><path style="opacity:1" fill="#967c48" d="M 564.5,1321.5 C 564.706,1324.5 564.04,1327.16 562.5,1329.5C 562.565,1326.57 563.232,1323.91 564.5,1321.5 Z"/></g>
<g><path style="opacity:1" fill="#73695e" d="M 562.5,1329.5 C 562.373,1334.15 561.373,1338.48 559.5,1342.5C 559.882,1337.91 560.882,1333.57 562.5,1329.5 Z"/></g>
<g><path style="opacity:1" fill="#7a6546" d="M 491.5,1339.5 C 491.573,1341.03 490.906,1342.03 489.5,1342.5C 489.427,1340.97 490.094,1339.97 491.5,1339.5 Z"/></g>
<g><path style="opacity:1" fill="#7d6851" d="M 502.5,1348.5 C 502.5,1349.5 502.5,1350.5 502.5,1351.5C 513.167,1351.5 523.833,1351.5 534.5,1351.5C 523.679,1352.49 512.679,1352.83 501.5,1352.5C 501.232,1350.9 501.566,1349.57 502.5,1348.5 Z"/></g>
<g><path style="opacity:1" fill="#705e50" d="M 760.5,1349.5 C 761.404,1350.21 761.737,1351.21 761.5,1352.5C 749.322,1352.83 737.322,1352.5 725.5,1351.5C 737.548,1352.15 749.215,1351.48 760.5,1349.5 Z"/></g>
<g><path style="opacity:1" fill="#36395b" d="M 485.5,1351.5 C 485.5,1353.17 485.5,1354.83 485.5,1356.5C 534.5,1356.5 583.5,1356.5 632.5,1356.5C 632.5,1356.83 632.5,1357.17 632.5,1357.5C 608.833,1357.5 585.167,1357.5 561.5,1357.5C 535.145,1358.16 509.145,1357.49 483.5,1355.5C 483.66,1353.85 484.326,1352.51 485.5,1351.5 Z"/></g>
<g><path style="opacity:1" fill="#927340" d="M 777.5,1355.5 C 778.043,1355.56 778.376,1355.89 778.5,1356.5C 729.838,1357.5 681.171,1357.83 632.5,1357.5C 632.5,1357.17 632.5,1356.83 632.5,1356.5C 681.003,1356.83 729.336,1356.5 777.5,1355.5 Z"/></g>
<g><path style="opacity:1" fill="#be8f30" d="M 483.5,1355.5 C 509.145,1357.49 535.145,1358.16 561.5,1357.5C 535.339,1358.5 509.005,1358.83 482.5,1358.5C 482.263,1357.21 482.596,1356.21 483.5,1355.5 Z"/></g>
<g><path style="opacity:1" fill="#444446" d="M 405.5,1396.5 C 555.163,1398.5 705.163,1399.17 855.5,1398.5C 705.334,1399.5 555.001,1399.83 404.5,1399.5C 404.263,1398.21 404.596,1397.21 405.5,1396.5 Z"/></g>
</svg>
